<?xml version="1.0" encoding="utf-8"?>
<svg xmlns="http://www.w3.org/2000/svg" viewBox="-1.1 -1.1 2.2 2.2"
     width="1mm" height="1mm">
  <polyline points="1.0000,0.0000 0.8844,0.3580 0.6539,0.6333 0.3516,0.7942 0.0266,0.8282 -0.2730,0.7420 -0.5071,0.5584 -0.6484,0.3123 -0.6852,0.0440 -0.6218,-0.2064 -0.4759,-0.4052 -0.2758,-0.5287 -0.0546,-0.5664 0.1545,-0.5204 0.3229,-0.4049 0.4306,-0.2425 0.4676,-0.0603 0.4351,0.1141 0.3440,0.2567 0.2123,0.3502 0.0624,0.3857 -0.0829,0.3634 -0.2035,0.2917 -0.2844,0.1851 -0.3178,0.0619 -0.3032,-0.0590 -0.2470,-0.1608 -0.1609,-0.2306 -0.0597,-0.2615 0.0409,-0.2527 0.1266,-0.2088 0.1867,-0.1394 0.2150,-0.0564 0.2104,0.0271 0.1763,0.0993 0.1204,0.1509 0.0524,0.1766 -0.0169,0.1749 -0.0776,0.1487 -0.1218,0.1037 -0.1449,0.0481 -0.1453,-0.0093 -0.1252,-0.0603 -0.0891,-0.0981 -0.0437,-0.1187 0.0039,-0.1206 0.0466,-0.1053 0.0789,-0.0764 0.0972,-0.0393 0.1000,-0.0000" fill="none" stroke="black" stroke-width="0.01"
            data-anchor-attach="(1,0)" data-anchor-eye="(0,0)" />
</svg>