<?xml version="1.0" encoding="utf-8"?>
<svg xmlns="http://www.w3.org/2000/svg" viewBox="-1 -1 2 2"
     width="1mm" height="1mm">
  <polygon points="0.4157,-0.1722 0.9000,0.0000 0.4157,0.1722 0.4157,0.1722 0.6364,0.6364 0.1722,0.4157 0.1722,0.4157 0.0000,0.9000 -0.1722,0.4157 -0.1722,0.4157 -0.6364,0.6364 -0.4157,0.1722 -0.4157,0.1722 -0.9000,0.0000 -0.4157,-0.1722 -0.4157,-0.1722 -0.6364,-0.6364 -0.1722,-0.4157 -0.1722,-0.4157 -0.0000,-0.9000 0.1722,-0.4157 0.1722,-0.4157 0.6364,-0.6364 0.4157,-0.1722 0.4157,-0.1722" fill="none" stroke="black" stroke-width="0.01"
           data-anchor-center="(0,0)" />
  <polygon points="0.2310,0.0957 0.0957,0.2310 -0.0957,0.2310 -0.2310,0.0957 -0.2310,-0.0957 -0.0957,-0.2310 0.0957,-0.2310 0.2310,-0.0957 0.2310,0.0957" fill="none" stroke="black" stroke-width="0.01" />
</svg>